<svg xmlns="http://www.w3.org/2000/svg" version="1.1" width="1422" height="559" viewBox="161.82468694096588 -651.3406248348846 1904.5438282647588 748.691983122363" preserveAspectRatio="none"><defs id="bmaDefs"><marker id="Activator" refX="4" refY="0" markerWidth="8" markerHeight="4" orient="auto" viewBox="0 -2 4 4"><polyline points="0,2 4,0 0,-2" fill="none" stroke="#808080" stroke-width="1px"/></marker><marker id="Inhibitor" refX="0" refY="0" markerWidth="2" markerHeight="6" orient="auto" viewBox="0 -3 2 6"><line x1="0" y1="3" x2="0" y2="-3" fill="none" stroke="#808080" stroke-width="2px"/></marker></defs><g transform="translate(750, -280)"><rect x="-247.5" y="-277.2" width="495" height="554.4" stroke="none" fill="transparent"/><path d="M249,577 C386.518903,577 498,447.83415 498,288.5 C498,129.16585 386.518903,0 249,0 C111.481097,0 0,129.16585 0,288.5 C0,447.83415 111.481097,577 249,577 Z M262,563 C387.368638,563 489,440.102164 489,288.5 C489,136.897836 387.368638,14 262,14 C136.631362,14 35,136.897836 35,288.5 C35,440.102164 136.631362,563 262,563 Z" stroke="transparent" fill="#FAAF40" fill-rule="evenodd" transform="scale(0.9) translate(-250, -290)" onmouseover="BMA.SVGHelper.AddClass(this, 'modeldesigner-element-hover')" onmouseout="BMA.SVGHelper.RemoveClass(this, 'modeldesigner-element-hover')" class="null"/><ellipse cx="10" cy="0" rx="204" ry="248" stroke="none" fill="transparent"/><text x="0" y="0" transform="translate(-230, -250)" font-size="20" font-family="OpenSans" src="local('Segoe UI'), local('Frutiger'), local('Frutiger Linotype'), local('Dejavu Sans'), local('Helvetica Neue'), local('HelveticaNeue'), local('Arial'), local('sans serif'), local('sans-serif')" fill="black">Pre Synaptic Buoton</text></g><g transform="translate(1125, -140)"><rect x="-122.5" y="-137.2" width="245" height="274.4" stroke="none" fill="transparent"/><path d="M249,577 C386.518903,577 498,447.83415 498,288.5 C498,129.16585 386.518903,0 249,0 C111.481097,0 0,129.16585 0,288.5 C0,447.83415 111.481097,577 249,577 Z M262,563 C387.368638,563 489,440.102164 489,288.5 C489,136.897836 387.368638,14 262,14 C136.631362,14 35,136.897836 35,288.5 C35,440.102164 136.631362,563 262,563 Z" stroke="transparent" fill="#FAAF40" fill-rule="evenodd" transform="scale(0.45) translate(-250, -290)" onmouseover="BMA.SVGHelper.AddClass(this, 'modeldesigner-element-hover')" onmouseout="BMA.SVGHelper.RemoveClass(this, 'modeldesigner-element-hover')"/><ellipse cx="5" cy="0" rx="102" ry="124" stroke="none" fill="transparent"/><text x="0" y="0" transform="translate(-115, -120)" font-size="10" font-family="OpenSans" src="local('Segoe UI'), local('Frutiger'), local('Frutiger Linotype'), local('Dejavu Sans'), local('Helvetica Neue'), local('HelveticaNeue'), local('Arial'), local('sans serif'), local('sans-serif')" fill="black">Vesicle</text></g><g transform="translate(1500, -280)"><rect x="-247.5" y="-277.2" width="495" height="554.4" stroke="none" fill="transparent"/><path d="M249,577 C386.518903,577 498,447.83415 498,288.5 C498,129.16585 386.518903,0 249,0 C111.481097,0 0,129.16585 0,288.5 C0,447.83415 111.481097,577 249,577 Z M262,563 C387.368638,563 489,440.102164 489,288.5 C489,136.897836 387.368638,14 262,14 C136.631362,14 35,136.897836 35,288.5 C35,440.102164 136.631362,563 262,563 Z" stroke="transparent" fill="#FAAF40" fill-rule="evenodd" transform="scale(0.9) translate(-250, -290)" onmouseover="BMA.SVGHelper.AddClass(this, 'modeldesigner-element-hover')" onmouseout="BMA.SVGHelper.RemoveClass(this, 'modeldesigner-element-hover')" class="null"/><ellipse cx="10" cy="0" rx="204" ry="248" stroke="none" fill="transparent"/><text x="0" y="0" transform="translate(-230, -250)" font-size="20" font-family="OpenSans" src="local('Segoe UI'), local('Frutiger'), local('Frutiger Linotype'), local('Dejavu Sans'), local('Helvetica Neue'), local('HelveticaNeue'), local('Arial'), local('sans serif'), local('sans-serif')" fill="black">Post Synaptic Membrane</text></g><g transform="translate(962.258726899384, -355.3182751540041)"><path d="M9.9-10.5c-1.4-1.9-2.3,0.1-5.1,0.8C2.6-9.2,2.4-13.2,0-13.2c-2.4,0-2.4,3.5-4.8,3.5c-2.4,0-3.8-2.7-5.2-0.8l8.2,11.8v12.1c0,1,0.8,1.7,1.7,1.7c1,0,1.7-0.8,1.7-1.7V1.3L9.9-10.5z" stroke="transparent" fill="#3BB34A" stroke-width="8" transform="scale(1.2) rotate(70.46318625762126)" onmouseover="BMA.SVGHelper.AddClass(this, 'modeldesigner-element-hover')" onmouseout="BMA.SVGHelper.RemoveClass(this, 'modeldesigner-element-hover')"/><text x="0" y="0" transform="translate(-17.5, 25)" font-size="10" font-family="OpenSans" src="local('Segoe UI'), local('Frutiger'), local('Frutiger Linotype'), local('Dejavu Sans'), local('Helvetica Neue'), local('HelveticaNeue'), local('Arial'), local('sans serif'), local('sans-serif')" fill="black">DAT</text></g><g transform="translate(1286.8275692100528, -331.9914211800091)"><path d="M9.9-10.5c-1.4-1.9-2.3,0.1-5.1,0.8C2.6-9.2,2.4-13.2,0-13.2c-2.4,0-2.4,3.5-4.8,3.5c-2.4,0-3.8-2.7-5.2-0.8l8.2,11.8v12.1c0,1,0.8,1.7,1.7,1.7c1,0,1.7-0.8,1.7-1.7V1.3L9.9-10.5z" stroke="transparent" fill="#3BB34A" stroke-width="8" transform="scale(1.2) rotate(283.70649051259954)" onmouseover="BMA.SVGHelper.AddClass(this, 'modeldesigner-element-hover')" onmouseout="BMA.SVGHelper.RemoveClass(this, 'modeldesigner-element-hover')"/><text x="0" y="0" transform="translate(-17.5, 25)" font-size="10" font-family="OpenSans" src="local('Segoe UI'), local('Frutiger'), local('Frutiger Linotype'), local('Dejavu Sans'), local('Helvetica Neue'), local('HelveticaNeue'), local('Arial'), local('sans serif'), local('sans-serif')" fill="black">D1</text></g><g transform="translate(1032.795624628979, -188.58407050938953)"><path d="M9.9-10.5c-1.4-1.9-2.3,0.1-5.1,0.8C2.6-9.2,2.4-13.2,0-13.2c-2.4,0-2.4,3.5-4.8,3.5c-2.4,0-3.8-2.7-5.2-0.8l8.2,11.8v12.1c0,1,0.8,1.7,1.7,1.7c1,0,1.7-0.8,1.7-1.7V1.3L9.9-10.5z" stroke="transparent" fill="#3BB34A" stroke-width="8" transform="scale(1.2) rotate(297.78551713134897)" onmouseover="BMA.SVGHelper.AddClass(this, 'modeldesigner-element-hover')" onmouseout="BMA.SVGHelper.RemoveClass(this, 'modeldesigner-element-hover')"/><text x="0" y="0" transform="translate(-17.5, 25)" font-size="10" font-family="OpenSans" src="local('Segoe UI'), local('Frutiger'), local('Frutiger Linotype'), local('Dejavu Sans'), local('Helvetica Neue'), local('HelveticaNeue'), local('Arial'), local('sans serif'), local('sans-serif')" fill="black">VMAT</text></g><g transform="translate(1108, -350.8571341378348)"><path d="M27.3,43.4l-2.2-0.8c-12-4.4-19.3-11.5-20-19.7c0-0.5-0.1-0.9-0.1-1.4c-5.4-2.6-9-7.3-10.5-12.3c-0.6-2-0.9-4.1-0.8-6.3c-4.7-1.7-8.2-4.7-10.3-8.2c-2.1-3.4-3.2-8.1-2.1-13.4c-6.7-1.8-12.5-4.3-15.9-5.8l-7.4,19.9l26.7,7.9L-17,9.1l-32.8-9.7l11.9-32l3,1.5c3.9,1.9,10.8,4.9,18.1,6.9c1.9-4,5.1-8.1,10-12.1c10.8-8.9,19.7-8.1,23.8-3.4c3.5,4,3.6,11.6-4.2,18.7c-6.3,5.7-16.2,5.7-25.7,3.8c-0.6,3.2-0.2,6.2,1.4,8.9c1.3,2.2,3.4,4,6.3,5.3C-3.4-8.3,0.7-13.2,8-16c15.9-6.1,19.9,0.2,20.7,2.2c2.1,5.2-2.4,11.8-10.1,15C11.5,4.2,5.1,5-0.3,4.4C-0.2,5.5,0,6.5,0.3,7.5c0.9,3.2,3,6.1,6.2,8C8,12.1,11,9,15,6.7C25,1,32.2,1.6,35.7,4.2c2.3,1.7,3.3,4.3,2.7,7.1c-1.1,5.3-7.6,9.7-17.5,11.8c-3.6,0.8-6.8,0.8-9.7,0.4c1,4.9,6,9.5,13.9,12.8l7.4-10.7l17.4,10.1l-3,5.1l-12.6-7.4L27.3,43.4L27.3,43.4z M12.1,17.5c2.2,0.3,4.8,0.3,7.6-0.3c9.4-2,12.6-5.6,12.9-7.2c0.1-0.4,0-0.7-0.4-1c-1.4-1-6.2-1.7-14.1,2.9C15.2,13.4,13.2,15.4,12.1,17.5L12.1,17.5z M0.6-1.5C5-1,10.3-1.7,16.3-4.2c5.4-2.3,7.4-6,6.9-7.3c-0.4-1-4.3-2.2-13,1.1C5-8.5,2-5.1,0.6-1.5L0.6-1.5z M-10.8-22.8c7.8,1.4,15.2,1.3,19.5-2.6c4.7-4.2,5.4-8.4,3.7-10.4c-2.1-2.5-8.3-1.9-15.5,4.1C-6.5-28.9-9.1-25.9-10.8-22.8L-10.8-22.8z" stroke="transparent" fill="#BBBDBF" stroke-width="8" transform="scale(0.36)" onmouseover="BMA.SVGHelper.AddClass(this, 'modeldesigner-element-hover')" onmouseout="BMA.SVGHelper.RemoveClass(this, 'modeldesigner-element-hover')"/><text x="0" y="0" transform="translate(-17.5, 25)" font-size="10" font-family="OpenSans" src="local('Segoe UI'), local('Frutiger'), local('Frutiger Linotype'), local('Dejavu Sans'), local('Helvetica Neue'), local('HelveticaNeue'), local('Arial'), local('sans serif'), local('sans-serif')" fill="black">DA_cleft</text></g><g transform="translate(708.249842746786, -202.71128309926522)"><path d="M27.3,43.4l-2.2-0.8c-12-4.4-19.3-11.5-20-19.7c0-0.5-0.1-0.9-0.1-1.4c-5.4-2.6-9-7.3-10.5-12.3c-0.6-2-0.9-4.1-0.8-6.3c-4.7-1.7-8.2-4.7-10.3-8.2c-2.1-3.4-3.2-8.1-2.1-13.4c-6.7-1.8-12.5-4.3-15.9-5.8l-7.4,19.9l26.7,7.9L-17,9.1l-32.8-9.7l11.9-32l3,1.5c3.9,1.9,10.8,4.9,18.1,6.9c1.9-4,5.1-8.1,10-12.1c10.8-8.9,19.7-8.1,23.8-3.4c3.5,4,3.6,11.6-4.2,18.7c-6.3,5.7-16.2,5.7-25.7,3.8c-0.6,3.2-0.2,6.2,1.4,8.9c1.3,2.2,3.4,4,6.3,5.3C-3.4-8.3,0.7-13.2,8-16c15.9-6.1,19.9,0.2,20.7,2.2c2.1,5.2-2.4,11.8-10.1,15C11.5,4.2,5.1,5-0.3,4.4C-0.2,5.5,0,6.5,0.3,7.5c0.9,3.2,3,6.1,6.2,8C8,12.1,11,9,15,6.7C25,1,32.2,1.6,35.7,4.2c2.3,1.7,3.3,4.3,2.7,7.1c-1.1,5.3-7.6,9.7-17.5,11.8c-3.6,0.8-6.8,0.8-9.7,0.4c1,4.9,6,9.5,13.9,12.8l7.4-10.7l17.4,10.1l-3,5.1l-12.6-7.4L27.3,43.4L27.3,43.4z M12.1,17.5c2.2,0.3,4.8,0.3,7.6-0.3c9.4-2,12.6-5.6,12.9-7.2c0.1-0.4,0-0.7-0.4-1c-1.4-1-6.2-1.7-14.1,2.9C15.2,13.4,13.2,15.4,12.1,17.5L12.1,17.5z M0.6-1.5C5-1,10.3-1.7,16.3-4.2c5.4-2.3,7.4-6,6.9-7.3c-0.4-1-4.3-2.2-13,1.1C5-8.5,2-5.1,0.6-1.5L0.6-1.5z M-10.8-22.8c7.8,1.4,15.2,1.3,19.5-2.6c4.7-4.2,5.4-8.4,3.7-10.4c-2.1-2.5-8.3-1.9-15.5,4.1C-6.5-28.9-9.1-25.9-10.8-22.8L-10.8-22.8z" stroke="transparent" fill="#EF4137" stroke-width="8" transform="scale(0.25)" onmouseover="BMA.SVGHelper.AddClass(this, 'modeldesigner-element-hover')" onmouseout="BMA.SVGHelper.RemoveClass(this, 'modeldesigner-element-hover')"/><text x="0" y="0" transform="translate(-17.5, 25)" font-size="10" font-family="OpenSans" src="local('Segoe UI'), local('Frutiger'), local('Frutiger Linotype'), local('Dejavu Sans'), local('Helvetica Neue'), local('HelveticaNeue'), local('Arial'), local('sans serif'), local('sans-serif')" fill="black">DA_intracellular</text></g><g transform="translate(1514.9038302294339, -268.25491271408225)"><path d="M27.3,43.4l-2.2-0.8c-12-4.4-19.3-11.5-20-19.7c0-0.5-0.1-0.9-0.1-1.4c-5.4-2.6-9-7.3-10.5-12.3c-0.6-2-0.9-4.1-0.8-6.3c-4.7-1.7-8.2-4.7-10.3-8.2c-2.1-3.4-3.2-8.1-2.1-13.4c-6.7-1.8-12.5-4.3-15.9-5.8l-7.4,19.9l26.7,7.9L-17,9.1l-32.8-9.7l11.9-32l3,1.5c3.9,1.9,10.8,4.9,18.1,6.9c1.9-4,5.1-8.1,10-12.1c10.8-8.9,19.7-8.1,23.8-3.4c3.5,4,3.6,11.6-4.2,18.7c-6.3,5.7-16.2,5.7-25.7,3.8c-0.6,3.2-0.2,6.2,1.4,8.9c1.3,2.2,3.4,4,6.3,5.3C-3.4-8.3,0.7-13.2,8-16c15.9-6.1,19.9,0.2,20.7,2.2c2.1,5.2-2.4,11.8-10.1,15C11.5,4.2,5.1,5-0.3,4.4C-0.2,5.5,0,6.5,0.3,7.5c0.9,3.2,3,6.1,6.2,8C8,12.1,11,9,15,6.7C25,1,32.2,1.6,35.7,4.2c2.3,1.7,3.3,4.3,2.7,7.1c-1.1,5.3-7.6,9.7-17.5,11.8c-3.6,0.8-6.8,0.8-9.7,0.4c1,4.9,6,9.5,13.9,12.8l7.4-10.7l17.4,10.1l-3,5.1l-12.6-7.4L27.3,43.4L27.3,43.4z M12.1,17.5c2.2,0.3,4.8,0.3,7.6-0.3c9.4-2,12.6-5.6,12.9-7.2c0.1-0.4,0-0.7-0.4-1c-1.4-1-6.2-1.7-14.1,2.9C15.2,13.4,13.2,15.4,12.1,17.5L12.1,17.5z M0.6-1.5C5-1,10.3-1.7,16.3-4.2c5.4-2.3,7.4-6,6.9-7.3c-0.4-1-4.3-2.2-13,1.1C5-8.5,2-5.1,0.6-1.5L0.6-1.5z M-10.8-22.8c7.8,1.4,15.2,1.3,19.5-2.6c4.7-4.2,5.4-8.4,3.7-10.4c-2.1-2.5-8.3-1.9-15.5,4.1C-6.5-28.9-9.1-25.9-10.8-22.8L-10.8-22.8z" stroke="transparent" fill="#EF4137" stroke-width="8" transform="scale(0.25)" onmouseover="BMA.SVGHelper.AddClass(this, 'modeldesigner-element-hover')" onmouseout="BMA.SVGHelper.RemoveClass(this, 'modeldesigner-element-hover')"/><text x="0" y="0" transform="translate(-17.5, 25)" font-size="10" font-family="OpenSans" src="local('Segoe UI'), local('Frutiger'), local('Frutiger Linotype'), local('Dejavu Sans'), local('Helvetica Neue'), local('HelveticaNeue'), local('Arial'), local('sans serif'), local('sans-serif')" fill="black">Action potential</text></g><g transform="translate(714.7945205479451, -358.63013698630135)"><path d="M27.3,43.4l-2.2-0.8c-12-4.4-19.3-11.5-20-19.7c0-0.5-0.1-0.9-0.1-1.4c-5.4-2.6-9-7.3-10.5-12.3c-0.6-2-0.9-4.1-0.8-6.3c-4.7-1.7-8.2-4.7-10.3-8.2c-2.1-3.4-3.2-8.1-2.1-13.4c-6.7-1.8-12.5-4.3-15.9-5.8l-7.4,19.9l26.7,7.9L-17,9.1l-32.8-9.7l11.9-32l3,1.5c3.9,1.9,10.8,4.9,18.1,6.9c1.9-4,5.1-8.1,10-12.1c10.8-8.9,19.7-8.1,23.8-3.4c3.5,4,3.6,11.6-4.2,18.7c-6.3,5.7-16.2,5.7-25.7,3.8c-0.6,3.2-0.2,6.2,1.4,8.9c1.3,2.2,3.4,4,6.3,5.3C-3.4-8.3,0.7-13.2,8-16c15.9-6.1,19.9,0.2,20.7,2.2c2.1,5.2-2.4,11.8-10.1,15C11.5,4.2,5.1,5-0.3,4.4C-0.2,5.5,0,6.5,0.3,7.5c0.9,3.2,3,6.1,6.2,8C8,12.1,11,9,15,6.7C25,1,32.2,1.6,35.7,4.2c2.3,1.7,3.3,4.3,2.7,7.1c-1.1,5.3-7.6,9.7-17.5,11.8c-3.6,0.8-6.8,0.8-9.7,0.4c1,4.9,6,9.5,13.9,12.8l7.4-10.7l17.4,10.1l-3,5.1l-12.6-7.4L27.3,43.4L27.3,43.4z M12.1,17.5c2.2,0.3,4.8,0.3,7.6-0.3c9.4-2,12.6-5.6,12.9-7.2c0.1-0.4,0-0.7-0.4-1c-1.4-1-6.2-1.7-14.1,2.9C15.2,13.4,13.2,15.4,12.1,17.5L12.1,17.5z M0.6-1.5C5-1,10.3-1.7,16.3-4.2c5.4-2.3,7.4-6,6.9-7.3c-0.4-1-4.3-2.2-13,1.1C5-8.5,2-5.1,0.6-1.5L0.6-1.5z M-10.8-22.8c7.8,1.4,15.2,1.3,19.5-2.6c4.7-4.2,5.4-8.4,3.7-10.4c-2.1-2.5-8.3-1.9-15.5,4.1C-6.5-28.9-9.1-25.9-10.8-22.8L-10.8-22.8z" stroke="transparent" fill="#EF4137" stroke-width="8" transform="scale(0.25)" onmouseover="BMA.SVGHelper.AddClass(this, 'modeldesigner-element-hover')" onmouseout="BMA.SVGHelper.RemoveClass(this, 'modeldesigner-element-hover')"/><text x="0" y="0" transform="translate(-17.5, 25)" font-size="10" font-family="OpenSans" src="local('Segoe UI'), local('Frutiger'), local('Frutiger Linotype'), local('Dejavu Sans'), local('Helvetica Neue'), local('HelveticaNeue'), local('Arial'), local('sans serif'), local('sans-serif')" fill="black">MAO</text></g><g transform="translate(628.4931506849315, -391.23287671232873)"><path d="M27.3,43.4l-2.2-0.8c-12-4.4-19.3-11.5-20-19.7c0-0.5-0.1-0.9-0.1-1.4c-5.4-2.6-9-7.3-10.5-12.3c-0.6-2-0.9-4.1-0.8-6.3c-4.7-1.7-8.2-4.7-10.3-8.2c-2.1-3.4-3.2-8.1-2.1-13.4c-6.7-1.8-12.5-4.3-15.9-5.8l-7.4,19.9l26.7,7.9L-17,9.1l-32.8-9.7l11.9-32l3,1.5c3.9,1.9,10.8,4.9,18.1,6.9c1.9-4,5.1-8.1,10-12.1c10.8-8.9,19.7-8.1,23.8-3.4c3.5,4,3.6,11.6-4.2,18.7c-6.3,5.7-16.2,5.7-25.7,3.8c-0.6,3.2-0.2,6.2,1.4,8.9c1.3,2.2,3.4,4,6.3,5.3C-3.4-8.3,0.7-13.2,8-16c15.9-6.1,19.9,0.2,20.7,2.2c2.1,5.2-2.4,11.8-10.1,15C11.5,4.2,5.1,5-0.3,4.4C-0.2,5.5,0,6.5,0.3,7.5c0.9,3.2,3,6.1,6.2,8C8,12.1,11,9,15,6.7C25,1,32.2,1.6,35.7,4.2c2.3,1.7,3.3,4.3,2.7,7.1c-1.1,5.3-7.6,9.7-17.5,11.8c-3.6,0.8-6.8,0.8-9.7,0.4c1,4.9,6,9.5,13.9,12.8l7.4-10.7l17.4,10.1l-3,5.1l-12.6-7.4L27.3,43.4L27.3,43.4z M12.1,17.5c2.2,0.3,4.8,0.3,7.6-0.3c9.4-2,12.6-5.6,12.9-7.2c0.1-0.4,0-0.7-0.4-1c-1.4-1-6.2-1.7-14.1,2.9C15.2,13.4,13.2,15.4,12.1,17.5L12.1,17.5z M0.6-1.5C5-1,10.3-1.7,16.3-4.2c5.4-2.3,7.4-6,6.9-7.3c-0.4-1-4.3-2.2-13,1.1C5-8.5,2-5.1,0.6-1.5L0.6-1.5z M-10.8-22.8c7.8,1.4,15.2,1.3,19.5-2.6c4.7-4.2,5.4-8.4,3.7-10.4c-2.1-2.5-8.3-1.9-15.5,4.1C-6.5-28.9-9.1-25.9-10.8-22.8L-10.8-22.8z" stroke="transparent" fill="#EF4137" stroke-width="8" transform="scale(0.25)" onmouseover="BMA.SVGHelper.AddClass(this, 'modeldesigner-element-hover')" onmouseout="BMA.SVGHelper.RemoveClass(this, 'modeldesigner-element-hover')"/><text x="0" y="0" transform="translate(-17.5, 25)" font-size="10" font-family="OpenSans" src="local('Segoe UI'), local('Frutiger'), local('Frutiger Linotype'), local('Dejavu Sans'), local('Helvetica Neue'), local('HelveticaNeue'), local('Arial'), local('sans serif'), local('sans-serif')" fill="black">TH</text></g><g transform="translate(884.969757334899, -76.91312331187123)"><path d="M9.9-10.5c-1.4-1.9-2.3,0.1-5.1,0.8C2.6-9.2,2.4-13.2,0-13.2c-2.4,0-2.4,3.5-4.8,3.5c-2.4,0-3.8-2.7-5.2-0.8l8.2,11.8v12.1c0,1,0.8,1.7,1.7,1.7c1,0,1.7-0.8,1.7-1.7V1.3L9.9-10.5z" stroke="transparent" fill="#3BB34A" stroke-width="8" transform="scale(1.2) rotate(146.39233623196333)" onmouseover="BMA.SVGHelper.AddClass(this, 'modeldesigner-element-hover')" onmouseout="BMA.SVGHelper.RemoveClass(this, 'modeldesigner-element-hover')"/><text x="0" y="0" transform="translate(-17.5, 25)" font-size="10" font-family="OpenSans" src="local('Segoe UI'), local('Frutiger'), local('Frutiger Linotype'), local('Dejavu Sans'), local('Helvetica Neue'), local('HelveticaNeue'), local('Arial'), local('sans serif'), local('sans-serif')" fill="black">DAT_Reverse</text></g><g transform="translate(1191.2475692100527, -477.7914211800092)"><path d="M27.3,43.4l-2.2-0.8c-12-4.4-19.3-11.5-20-19.7c0-0.5-0.1-0.9-0.1-1.4c-5.4-2.6-9-7.3-10.5-12.3c-0.6-2-0.9-4.1-0.8-6.3c-4.7-1.7-8.2-4.7-10.3-8.2c-2.1-3.4-3.2-8.1-2.1-13.4c-6.7-1.8-12.5-4.3-15.9-5.8l-7.4,19.9l26.7,7.9L-17,9.1l-32.8-9.7l11.9-32l3,1.5c3.9,1.9,10.8,4.9,18.1,6.9c1.9-4,5.1-8.1,10-12.1c10.8-8.9,19.7-8.1,23.8-3.4c3.5,4,3.6,11.6-4.2,18.7c-6.3,5.7-16.2,5.7-25.7,3.8c-0.6,3.2-0.2,6.2,1.4,8.9c1.3,2.2,3.4,4,6.3,5.3C-3.4-8.3,0.7-13.2,8-16c15.9-6.1,19.9,0.2,20.7,2.2c2.1,5.2-2.4,11.8-10.1,15C11.5,4.2,5.1,5-0.3,4.4C-0.2,5.5,0,6.5,0.3,7.5c0.9,3.2,3,6.1,6.2,8C8,12.1,11,9,15,6.7C25,1,32.2,1.6,35.7,4.2c2.3,1.7,3.3,4.3,2.7,7.1c-1.1,5.3-7.6,9.7-17.5,11.8c-3.6,0.8-6.8,0.8-9.7,0.4c1,4.9,6,9.5,13.9,12.8l7.4-10.7l17.4,10.1l-3,5.1l-12.6-7.4L27.3,43.4L27.3,43.4z M12.1,17.5c2.2,0.3,4.8,0.3,7.6-0.3c9.4-2,12.6-5.6,12.9-7.2c0.1-0.4,0-0.7-0.4-1c-1.4-1-6.2-1.7-14.1,2.9C15.2,13.4,13.2,15.4,12.1,17.5L12.1,17.5z M0.6-1.5C5-1,10.3-1.7,16.3-4.2c5.4-2.3,7.4-6,6.9-7.3c-0.4-1-4.3-2.2-13,1.1C5-8.5,2-5.1,0.6-1.5L0.6-1.5z M-10.8-22.8c7.8,1.4,15.2,1.3,19.5-2.6c4.7-4.2,5.4-8.4,3.7-10.4c-2.1-2.5-8.3-1.9-15.5,4.1C-6.5-28.9-9.1-25.9-10.8-22.8L-10.8-22.8z" stroke="transparent" fill="#BBBDBF" stroke-width="8" transform="scale(0.36)" onmouseover="BMA.SVGHelper.AddClass(this, 'modeldesigner-element-hover')" onmouseout="BMA.SVGHelper.RemoveClass(this, 'modeldesigner-element-hover')"/><text x="0" y="0" transform="translate(-17.5, 25)" font-size="10" font-family="OpenSans" src="local('Segoe UI'), local('Frutiger'), local('Frutiger Linotype'), local('Dejavu Sans'), local('Helvetica Neue'), local('HelveticaNeue'), local('Arial'), local('sans serif'), local('sans-serif')" fill="black">AMPH_cleft</text></g><g transform="translate(814.5205479452053, -406.5753424657534)"><path d="M27.3,43.4l-2.2-0.8c-12-4.4-19.3-11.5-20-19.7c0-0.5-0.1-0.9-0.1-1.4c-5.4-2.6-9-7.3-10.5-12.3c-0.6-2-0.9-4.1-0.8-6.3c-4.7-1.7-8.2-4.7-10.3-8.2c-2.1-3.4-3.2-8.1-2.1-13.4c-6.7-1.8-12.5-4.3-15.9-5.8l-7.4,19.9l26.7,7.9L-17,9.1l-32.8-9.7l11.9-32l3,1.5c3.9,1.9,10.8,4.9,18.1,6.9c1.9-4,5.1-8.1,10-12.1c10.8-8.9,19.7-8.1,23.8-3.4c3.5,4,3.6,11.6-4.2,18.7c-6.3,5.7-16.2,5.7-25.7,3.8c-0.6,3.2-0.2,6.2,1.4,8.9c1.3,2.2,3.4,4,6.3,5.3C-3.4-8.3,0.7-13.2,8-16c15.9-6.1,19.9,0.2,20.7,2.2c2.1,5.2-2.4,11.8-10.1,15C11.5,4.2,5.1,5-0.3,4.4C-0.2,5.5,0,6.5,0.3,7.5c0.9,3.2,3,6.1,6.2,8C8,12.1,11,9,15,6.7C25,1,32.2,1.6,35.7,4.2c2.3,1.7,3.3,4.3,2.7,7.1c-1.1,5.3-7.6,9.7-17.5,11.8c-3.6,0.8-6.8,0.8-9.7,0.4c1,4.9,6,9.5,13.9,12.8l7.4-10.7l17.4,10.1l-3,5.1l-12.6-7.4L27.3,43.4L27.3,43.4z M12.1,17.5c2.2,0.3,4.8,0.3,7.6-0.3c9.4-2,12.6-5.6,12.9-7.2c0.1-0.4,0-0.7-0.4-1c-1.4-1-6.2-1.7-14.1,2.9C15.2,13.4,13.2,15.4,12.1,17.5L12.1,17.5z M0.6-1.5C5-1,10.3-1.7,16.3-4.2c5.4-2.3,7.4-6,6.9-7.3c-0.4-1-4.3-2.2-13,1.1C5-8.5,2-5.1,0.6-1.5L0.6-1.5z M-10.8-22.8c7.8,1.4,15.2,1.3,19.5-2.6c4.7-4.2,5.4-8.4,3.7-10.4c-2.1-2.5-8.3-1.9-15.5,4.1C-6.5-28.9-9.1-25.9-10.8-22.8L-10.8-22.8z" stroke="transparent" fill="#EF4137" stroke-width="8" transform="scale(0.25)" onmouseover="BMA.SVGHelper.AddClass(this, 'modeldesigner-element-hover')" onmouseout="BMA.SVGHelper.RemoveClass(this, 'modeldesigner-element-hover')"/><text x="0" y="0" transform="translate(-17.5, 25)" font-size="10" font-family="OpenSans" src="local('Segoe UI'), local('Frutiger'), local('Frutiger Linotype'), local('Dejavu Sans'), local('Helvetica Neue'), local('HelveticaNeue'), local('Arial'), local('sans serif'), local('sans-serif')" fill="black">AMPH_intracellular</text></g><g transform="translate(855.3724764185984, -504.3412115738531)"><path d="M9.9-10.5c-1.4-1.9-2.3,0.1-5.1,0.8C2.6-9.2,2.4-13.2,0-13.2c-2.4,0-2.4,3.5-4.8,3.5c-2.4,0-3.8-2.7-5.2-0.8l8.2,11.8v12.1c0,1,0.8,1.7,1.7,1.7c1,0,1.7-0.8,1.7-1.7V1.3L9.9-10.5z" stroke="transparent" fill="#3BB34A" stroke-width="8" transform="scale(1.2) rotate(25.15932057232214)" onmouseover="BMA.SVGHelper.AddClass(this, 'modeldesigner-element-hover')" onmouseout="BMA.SVGHelper.RemoveClass(this, 'modeldesigner-element-hover')"/><text x="0" y="0" transform="translate(-17.5, 25)" font-size="10" font-family="OpenSans" src="local('Segoe UI'), local('Frutiger'), local('Frutiger Linotype'), local('Dejavu Sans'), local('Helvetica Neue'), local('HelveticaNeue'), local('Arial'), local('sans serif'), local('sans-serif')" fill="black">DAT_AMPH</text></g><g transform="translate(1050.7522935779816, -54.45871559633028)"><path d="M9.9-10.5c-1.4-1.9-2.3,0.1-5.1,0.8C2.6-9.2,2.4-13.2,0-13.2c-2.4,0-2.4,3.5-4.8,3.5c-2.4,0-3.8-2.7-5.2-0.8l8.2,11.8v12.1c0,1,0.8,1.7,1.7,1.7c1,0,1.7-0.8,1.7-1.7V1.3L9.9-10.5z" stroke="transparent" fill="#3BB34A" stroke-width="8" transform="scale(1.2) rotate(220.9571676019831)" onmouseover="BMA.SVGHelper.AddClass(this, 'modeldesigner-element-hover')" onmouseout="BMA.SVGHelper.RemoveClass(this, 'modeldesigner-element-hover')"/><text x="0" y="0" transform="translate(-17.5, 25)" font-size="10" font-family="OpenSans" src="local('Segoe UI'), local('Frutiger'), local('Frutiger Linotype'), local('Dejavu Sans'), local('Helvetica Neue'), local('HelveticaNeue'), local('Arial'), local('sans serif'), local('sans-serif')" fill="black">VMAT AMPH</text></g><g transform="translate(1176.1100917431193, -60.62385321100918)"><path d="M27.3,43.4l-2.2-0.8c-12-4.4-19.3-11.5-20-19.7c0-0.5-0.1-0.9-0.1-1.4c-5.4-2.6-9-7.3-10.5-12.3c-0.6-2-0.9-4.1-0.8-6.3c-4.7-1.7-8.2-4.7-10.3-8.2c-2.1-3.4-3.2-8.1-2.1-13.4c-6.7-1.8-12.5-4.3-15.9-5.8l-7.4,19.9l26.7,7.9L-17,9.1l-32.8-9.7l11.9-32l3,1.5c3.9,1.9,10.8,4.9,18.1,6.9c1.9-4,5.1-8.1,10-12.1c10.8-8.9,19.7-8.1,23.8-3.4c3.5,4,3.6,11.6-4.2,18.7c-6.3,5.7-16.2,5.7-25.7,3.8c-0.6,3.2-0.2,6.2,1.4,8.9c1.3,2.2,3.4,4,6.3,5.3C-3.4-8.3,0.7-13.2,8-16c15.9-6.1,19.9,0.2,20.7,2.2c2.1,5.2-2.4,11.8-10.1,15C11.5,4.2,5.1,5-0.3,4.4C-0.2,5.5,0,6.5,0.3,7.5c0.9,3.2,3,6.1,6.2,8C8,12.1,11,9,15,6.7C25,1,32.2,1.6,35.7,4.2c2.3,1.7,3.3,4.3,2.7,7.1c-1.1,5.3-7.6,9.7-17.5,11.8c-3.6,0.8-6.8,0.8-9.7,0.4c1,4.9,6,9.5,13.9,12.8l7.4-10.7l17.4,10.1l-3,5.1l-12.6-7.4L27.3,43.4L27.3,43.4z M12.1,17.5c2.2,0.3,4.8,0.3,7.6-0.3c9.4-2,12.6-5.6,12.9-7.2c0.1-0.4,0-0.7-0.4-1c-1.4-1-6.2-1.7-14.1,2.9C15.2,13.4,13.2,15.4,12.1,17.5L12.1,17.5z M0.6-1.5C5-1,10.3-1.7,16.3-4.2c5.4-2.3,7.4-6,6.9-7.3c-0.4-1-4.3-2.2-13,1.1C5-8.5,2-5.1,0.6-1.5L0.6-1.5z M-10.8-22.8c7.8,1.4,15.2,1.3,19.5-2.6c4.7-4.2,5.4-8.4,3.7-10.4c-2.1-2.5-8.3-1.9-15.5,4.1C-6.5-28.9-9.1-25.9-10.8-22.8L-10.8-22.8z" stroke="transparent" fill="#EF4137" stroke-width="8" transform="scale(0.25)" onmouseover="BMA.SVGHelper.AddClass(this, 'modeldesigner-element-hover')" onmouseout="BMA.SVGHelper.RemoveClass(this, 'modeldesigner-element-hover')"/><text x="0" y="0" transform="translate(-17.5, 25)" font-size="10" font-family="OpenSans" src="local('Segoe UI'), local('Frutiger'), local('Frutiger Linotype'), local('Dejavu Sans'), local('Helvetica Neue'), local('HelveticaNeue'), local('Arial'), local('sans serif'), local('sans-serif')" fill="black">AMPH_vesicel</text></g><g transform="translate(1089.358595853528, -416.2127245883259)"><path d="M27.3,43.4l-2.2-0.8c-12-4.4-19.3-11.5-20-19.7c0-0.5-0.1-0.9-0.1-1.4c-5.4-2.6-9-7.3-10.5-12.3c-0.6-2-0.9-4.1-0.8-6.3c-4.7-1.7-8.2-4.7-10.3-8.2c-2.1-3.4-3.2-8.1-2.1-13.4c-6.7-1.8-12.5-4.3-15.9-5.8l-7.4,19.9l26.7,7.9L-17,9.1l-32.8-9.7l11.9-32l3,1.5c3.9,1.9,10.8,4.9,18.1,6.9c1.9-4,5.1-8.1,10-12.1c10.8-8.9,19.7-8.1,23.8-3.4c3.5,4,3.6,11.6-4.2,18.7c-6.3,5.7-16.2,5.7-25.7,3.8c-0.6,3.2-0.2,6.2,1.4,8.9c1.3,2.2,3.4,4,6.3,5.3C-3.4-8.3,0.7-13.2,8-16c15.9-6.1,19.9,0.2,20.7,2.2c2.1,5.2-2.4,11.8-10.1,15C11.5,4.2,5.1,5-0.3,4.4C-0.2,5.5,0,6.5,0.3,7.5c0.9,3.2,3,6.1,6.2,8C8,12.1,11,9,15,6.7C25,1,32.2,1.6,35.7,4.2c2.3,1.7,3.3,4.3,2.7,7.1c-1.1,5.3-7.6,9.7-17.5,11.8c-3.6,0.8-6.8,0.8-9.7,0.4c1,4.9,6,9.5,13.9,12.8l7.4-10.7l17.4,10.1l-3,5.1l-12.6-7.4L27.3,43.4L27.3,43.4z M12.1,17.5c2.2,0.3,4.8,0.3,7.6-0.3c9.4-2,12.6-5.6,12.9-7.2c0.1-0.4,0-0.7-0.4-1c-1.4-1-6.2-1.7-14.1,2.9C15.2,13.4,13.2,15.4,12.1,17.5L12.1,17.5z M0.6-1.5C5-1,10.3-1.7,16.3-4.2c5.4-2.3,7.4-6,6.9-7.3c-0.4-1-4.3-2.2-13,1.1C5-8.5,2-5.1,0.6-1.5L0.6-1.5z M-10.8-22.8c7.8,1.4,15.2,1.3,19.5-2.6c4.7-4.2,5.4-8.4,3.7-10.4c-2.1-2.5-8.3-1.9-15.5,4.1C-6.5-28.9-9.1-25.9-10.8-22.8L-10.8-22.8z" stroke="transparent" fill="#BBBDBF" stroke-width="8" transform="scale(0.36)" onmouseover="BMA.SVGHelper.AddClass(this, 'modeldesigner-element-hover')" onmouseout="BMA.SVGHelper.RemoveClass(this, 'modeldesigner-element-hover')"/><text x="0" y="0" transform="translate(-17.5, 25)" font-size="10" font-family="OpenSans" src="local('Segoe UI'), local('Frutiger'), local('Frutiger Linotype'), local('Dejavu Sans'), local('Helvetica Neue'), local('HelveticaNeue'), local('Arial'), local('sans serif'), local('sans-serif')" fill="black">Cocaine</text></g><g transform="translate(748.8224914186004, -121.30736657385373)"><path d="M27.3,43.4l-2.2-0.8c-12-4.4-19.3-11.5-20-19.7c0-0.5-0.1-0.9-0.1-1.4c-5.4-2.6-9-7.3-10.5-12.3c-0.6-2-0.9-4.1-0.8-6.3c-4.7-1.7-8.2-4.7-10.3-8.2c-2.1-3.4-3.2-8.1-2.1-13.4c-6.7-1.8-12.5-4.3-15.9-5.8l-7.4,19.9l26.7,7.9L-17,9.1l-32.8-9.7l11.9-32l3,1.5c3.9,1.9,10.8,4.9,18.1,6.9c1.9-4,5.1-8.1,10-12.1c10.8-8.9,19.7-8.1,23.8-3.4c3.5,4,3.6,11.6-4.2,18.7c-6.3,5.7-16.2,5.7-25.7,3.8c-0.6,3.2-0.2,6.2,1.4,8.9c1.3,2.2,3.4,4,6.3,5.3C-3.4-8.3,0.7-13.2,8-16c15.9-6.1,19.9,0.2,20.7,2.2c2.1,5.2-2.4,11.8-10.1,15C11.5,4.2,5.1,5-0.3,4.4C-0.2,5.5,0,6.5,0.3,7.5c0.9,3.2,3,6.1,6.2,8C8,12.1,11,9,15,6.7C25,1,32.2,1.6,35.7,4.2c2.3,1.7,3.3,4.3,2.7,7.1c-1.1,5.3-7.6,9.7-17.5,11.8c-3.6,0.8-6.8,0.8-9.7,0.4c1,4.9,6,9.5,13.9,12.8l7.4-10.7l17.4,10.1l-3,5.1l-12.6-7.4L27.3,43.4L27.3,43.4z M12.1,17.5c2.2,0.3,4.8,0.3,7.6-0.3c9.4-2,12.6-5.6,12.9-7.2c0.1-0.4,0-0.7-0.4-1c-1.4-1-6.2-1.7-14.1,2.9C15.2,13.4,13.2,15.4,12.1,17.5L12.1,17.5z M0.6-1.5C5-1,10.3-1.7,16.3-4.2c5.4-2.3,7.4-6,6.9-7.3c-0.4-1-4.3-2.2-13,1.1C5-8.5,2-5.1,0.6-1.5L0.6-1.5z M-10.8-22.8c7.8,1.4,15.2,1.3,19.5-2.6c4.7-4.2,5.4-8.4,3.7-10.4c-2.1-2.5-8.3-1.9-15.5,4.1C-6.5-28.9-9.1-25.9-10.8-22.8L-10.8-22.8z" stroke="transparent" fill="#EF4137" stroke-width="8" transform="scale(0.25)" onmouseover="BMA.SVGHelper.AddClass(this, 'modeldesigner-element-hover')" onmouseout="BMA.SVGHelper.RemoveClass(this, 'modeldesigner-element-hover')"/><text x="0" y="0" transform="translate(-17.5, 25)" font-size="10" font-family="OpenSans" src="local('Segoe UI'), local('Frutiger'), local('Frutiger Linotype'), local('Dejavu Sans'), local('Helvetica Neue'), local('HelveticaNeue'), local('Arial'), local('sans serif'), local('sans-serif')" fill="black">Na</text></g><g transform="translate(1083.633027522936, -190.09174311926606)"><path d="M27.3,43.4l-2.2-0.8c-12-4.4-19.3-11.5-20-19.7c0-0.5-0.1-0.9-0.1-1.4c-5.4-2.6-9-7.3-10.5-12.3c-0.6-2-0.9-4.1-0.8-6.3c-4.7-1.7-8.2-4.7-10.3-8.2c-2.1-3.4-3.2-8.1-2.1-13.4c-6.7-1.8-12.5-4.3-15.9-5.8l-7.4,19.9l26.7,7.9L-17,9.1l-32.8-9.7l11.9-32l3,1.5c3.9,1.9,10.8,4.9,18.1,6.9c1.9-4,5.1-8.1,10-12.1c10.8-8.9,19.7-8.1,23.8-3.4c3.5,4,3.6,11.6-4.2,18.7c-6.3,5.7-16.2,5.7-25.7,3.8c-0.6,3.2-0.2,6.2,1.4,8.9c1.3,2.2,3.4,4,6.3,5.3C-3.4-8.3,0.7-13.2,8-16c15.9-6.1,19.9,0.2,20.7,2.2c2.1,5.2-2.4,11.8-10.1,15C11.5,4.2,5.1,5-0.3,4.4C-0.2,5.5,0,6.5,0.3,7.5c0.9,3.2,3,6.1,6.2,8C8,12.1,11,9,15,6.7C25,1,32.2,1.6,35.7,4.2c2.3,1.7,3.3,4.3,2.7,7.1c-1.1,5.3-7.6,9.7-17.5,11.8c-3.6,0.8-6.8,0.8-9.7,0.4c1,4.9,6,9.5,13.9,12.8l7.4-10.7l17.4,10.1l-3,5.1l-12.6-7.4L27.3,43.4L27.3,43.4z M12.1,17.5c2.2,0.3,4.8,0.3,7.6-0.3c9.4-2,12.6-5.6,12.9-7.2c0.1-0.4,0-0.7-0.4-1c-1.4-1-6.2-1.7-14.1,2.9C15.2,13.4,13.2,15.4,12.1,17.5L12.1,17.5z M0.6-1.5C5-1,10.3-1.7,16.3-4.2c5.4-2.3,7.4-6,6.9-7.3c-0.4-1-4.3-2.2-13,1.1C5-8.5,2-5.1,0.6-1.5L0.6-1.5z M-10.8-22.8c7.8,1.4,15.2,1.3,19.5-2.6c4.7-4.2,5.4-8.4,3.7-10.4c-2.1-2.5-8.3-1.9-15.5,4.1C-6.5-28.9-9.1-25.9-10.8-22.8L-10.8-22.8z" stroke="transparent" fill="#EF4137" stroke-width="8" transform="scale(0.25)" onmouseover="BMA.SVGHelper.AddClass(this, 'modeldesigner-element-hover')" onmouseout="BMA.SVGHelper.RemoveClass(this, 'modeldesigner-element-hover')"/><text x="0" y="0" transform="translate(-17.5, 25)" font-size="10" font-family="OpenSans" src="local('Segoe UI'), local('Frutiger'), local('Frutiger Linotype'), local('Dejavu Sans'), local('Helvetica Neue'), local('HelveticaNeue'), local('Arial'), local('sans serif'), local('sans-serif')" fill="black">DA_vesicle</text></g><g transform="translate(1148.3669724770643, -211.6697247706422)"><path d="M27.3,43.4l-2.2-0.8c-12-4.4-19.3-11.5-20-19.7c0-0.5-0.1-0.9-0.1-1.4c-5.4-2.6-9-7.3-10.5-12.3c-0.6-2-0.9-4.1-0.8-6.3c-4.7-1.7-8.2-4.7-10.3-8.2c-2.1-3.4-3.2-8.1-2.1-13.4c-6.7-1.8-12.5-4.3-15.9-5.8l-7.4,19.9l26.7,7.9L-17,9.1l-32.8-9.7l11.9-32l3,1.5c3.9,1.9,10.8,4.9,18.1,6.9c1.9-4,5.1-8.1,10-12.1c10.8-8.9,19.7-8.1,23.8-3.4c3.5,4,3.6,11.6-4.2,18.7c-6.3,5.7-16.2,5.7-25.7,3.8c-0.6,3.2-0.2,6.2,1.4,8.9c1.3,2.2,3.4,4,6.3,5.3C-3.4-8.3,0.7-13.2,8-16c15.9-6.1,19.9,0.2,20.7,2.2c2.1,5.2-2.4,11.8-10.1,15C11.5,4.2,5.1,5-0.3,4.4C-0.2,5.5,0,6.5,0.3,7.5c0.9,3.2,3,6.1,6.2,8C8,12.1,11,9,15,6.7C25,1,32.2,1.6,35.7,4.2c2.3,1.7,3.3,4.3,2.7,7.1c-1.1,5.3-7.6,9.7-17.5,11.8c-3.6,0.8-6.8,0.8-9.7,0.4c1,4.9,6,9.5,13.9,12.8l7.4-10.7l17.4,10.1l-3,5.1l-12.6-7.4L27.3,43.4L27.3,43.4z M12.1,17.5c2.2,0.3,4.8,0.3,7.6-0.3c9.4-2,12.6-5.6,12.9-7.2c0.1-0.4,0-0.7-0.4-1c-1.4-1-6.2-1.7-14.1,2.9C15.2,13.4,13.2,15.4,12.1,17.5L12.1,17.5z M0.6-1.5C5-1,10.3-1.7,16.3-4.2c5.4-2.3,7.4-6,6.9-7.3c-0.4-1-4.3-2.2-13,1.1C5-8.5,2-5.1,0.6-1.5L0.6-1.5z M-10.8-22.8c7.8,1.4,15.2,1.3,19.5-2.6c4.7-4.2,5.4-8.4,3.7-10.4c-2.1-2.5-8.3-1.9-15.5,4.1C-6.5-28.9-9.1-25.9-10.8-22.8L-10.8-22.8z" stroke="transparent" fill="#EF4137" stroke-width="8" transform="scale(0.25)" onmouseover="BMA.SVGHelper.AddClass(this, 'modeldesigner-element-hover')" onmouseout="BMA.SVGHelper.RemoveClass(this, 'modeldesigner-element-hover')"/><text x="0" y="0" transform="translate(-17.5, 25)" font-size="10" font-family="OpenSans" src="local('Segoe UI'), local('Frutiger'), local('Frutiger Linotype'), local('Dejavu Sans'), local('Helvetica Neue'), local('HelveticaNeue'), local('Arial'), local('sans serif'), local('sans-serif')" fill="black">Vesicle_relase</text></g><g transform="translate(1158.6422018348624, -150.0183486238532)"><path d="M27.3,43.4l-2.2-0.8c-12-4.4-19.3-11.5-20-19.7c0-0.5-0.1-0.9-0.1-1.4c-5.4-2.6-9-7.3-10.5-12.3c-0.6-2-0.9-4.1-0.8-6.3c-4.7-1.7-8.2-4.7-10.3-8.2c-2.1-3.4-3.2-8.1-2.1-13.4c-6.7-1.8-12.5-4.3-15.9-5.8l-7.4,19.9l26.7,7.9L-17,9.1l-32.8-9.7l11.9-32l3,1.5c3.9,1.9,10.8,4.9,18.1,6.9c1.9-4,5.1-8.1,10-12.1c10.8-8.9,19.7-8.1,23.8-3.4c3.5,4,3.6,11.6-4.2,18.7c-6.3,5.7-16.2,5.7-25.7,3.8c-0.6,3.2-0.2,6.2,1.4,8.9c1.3,2.2,3.4,4,6.3,5.3C-3.4-8.3,0.7-13.2,8-16c15.9-6.1,19.9,0.2,20.7,2.2c2.1,5.2-2.4,11.8-10.1,15C11.5,4.2,5.1,5-0.3,4.4C-0.2,5.5,0,6.5,0.3,7.5c0.9,3.2,3,6.1,6.2,8C8,12.1,11,9,15,6.7C25,1,32.2,1.6,35.7,4.2c2.3,1.7,3.3,4.3,2.7,7.1c-1.1,5.3-7.6,9.7-17.5,11.8c-3.6,0.8-6.8,0.8-9.7,0.4c1,4.9,6,9.5,13.9,12.8l7.4-10.7l17.4,10.1l-3,5.1l-12.6-7.4L27.3,43.4L27.3,43.4z M12.1,17.5c2.2,0.3,4.8,0.3,7.6-0.3c9.4-2,12.6-5.6,12.9-7.2c0.1-0.4,0-0.7-0.4-1c-1.4-1-6.2-1.7-14.1,2.9C15.2,13.4,13.2,15.4,12.1,17.5L12.1,17.5z M0.6-1.5C5-1,10.3-1.7,16.3-4.2c5.4-2.3,7.4-6,6.9-7.3c-0.4-1-4.3-2.2-13,1.1C5-8.5,2-5.1,0.6-1.5L0.6-1.5z M-10.8-22.8c7.8,1.4,15.2,1.3,19.5-2.6c4.7-4.2,5.4-8.4,3.7-10.4c-2.1-2.5-8.3-1.9-15.5,4.1C-6.5-28.9-9.1-25.9-10.8-22.8L-10.8-22.8z" stroke="transparent" fill="#EF4137" stroke-width="8" transform="scale(0.25)" onmouseover="BMA.SVGHelper.AddClass(this, 'modeldesigner-element-hover')" onmouseout="BMA.SVGHelper.RemoveClass(this, 'modeldesigner-element-hover')"/><text x="0" y="0" transform="translate(-17.5, 25)" font-size="10" font-family="OpenSans" src="local('Segoe UI'), local('Frutiger'), local('Frutiger Linotype'), local('Dejavu Sans'), local('Helvetica Neue'), local('HelveticaNeue'), local('Arial'), local('sans serif'), local('sans-serif')" fill="black">DA_vesicle_released</text></g><g transform="translate(1090.8256880733945, -118.1651376146789)"><path d="M27.3,43.4l-2.2-0.8c-12-4.4-19.3-11.5-20-19.7c0-0.5-0.1-0.9-0.1-1.4c-5.4-2.6-9-7.3-10.5-12.3c-0.6-2-0.9-4.1-0.8-6.3c-4.7-1.7-8.2-4.7-10.3-8.2c-2.1-3.4-3.2-8.1-2.1-13.4c-6.7-1.8-12.5-4.3-15.9-5.8l-7.4,19.9l26.7,7.9L-17,9.1l-32.8-9.7l11.9-32l3,1.5c3.9,1.9,10.8,4.9,18.1,6.9c1.9-4,5.1-8.1,10-12.1c10.8-8.9,19.7-8.1,23.8-3.4c3.5,4,3.6,11.6-4.2,18.7c-6.3,5.7-16.2,5.7-25.7,3.8c-0.6,3.2-0.2,6.2,1.4,8.9c1.3,2.2,3.4,4,6.3,5.3C-3.4-8.3,0.7-13.2,8-16c15.9-6.1,19.9,0.2,20.7,2.2c2.1,5.2-2.4,11.8-10.1,15C11.5,4.2,5.1,5-0.3,4.4C-0.2,5.5,0,6.5,0.3,7.5c0.9,3.2,3,6.1,6.2,8C8,12.1,11,9,15,6.7C25,1,32.2,1.6,35.7,4.2c2.3,1.7,3.3,4.3,2.7,7.1c-1.1,5.3-7.6,9.7-17.5,11.8c-3.6,0.8-6.8,0.8-9.7,0.4c1,4.9,6,9.5,13.9,12.8l7.4-10.7l17.4,10.1l-3,5.1l-12.6-7.4L27.3,43.4L27.3,43.4z M12.1,17.5c2.2,0.3,4.8,0.3,7.6-0.3c9.4-2,12.6-5.6,12.9-7.2c0.1-0.4,0-0.7-0.4-1c-1.4-1-6.2-1.7-14.1,2.9C15.2,13.4,13.2,15.4,12.1,17.5L12.1,17.5z M0.6-1.5C5-1,10.3-1.7,16.3-4.2c5.4-2.3,7.4-6,6.9-7.3c-0.4-1-4.3-2.2-13,1.1C5-8.5,2-5.1,0.6-1.5L0.6-1.5z M-10.8-22.8c7.8,1.4,15.2,1.3,19.5-2.6c4.7-4.2,5.4-8.4,3.7-10.4c-2.1-2.5-8.3-1.9-15.5,4.1C-6.5-28.9-9.1-25.9-10.8-22.8L-10.8-22.8z" stroke="transparent" fill="#EF4137" stroke-width="8" transform="scale(0.25)" onmouseover="BMA.SVGHelper.AddClass(this, 'modeldesigner-element-hover')" onmouseout="BMA.SVGHelper.RemoveClass(this, 'modeldesigner-element-hover')"/><text x="0" y="0" transform="translate(-17.5, 25)" font-size="10" font-family="OpenSans" src="local('Segoe UI'), local('Frutiger'), local('Frutiger Linotype'), local('Dejavu Sans'), local('Helvetica Neue'), local('HelveticaNeue'), local('Arial'), local('sans serif'), local('sans-serif')" fill="black">DA_veiscle_release_2</text></g><g transform="translate(1170.9724770642201, -312.3669724770642)"><path d="M27.3,43.4l-2.2-0.8c-12-4.4-19.3-11.5-20-19.7c0-0.5-0.1-0.9-0.1-1.4c-5.4-2.6-9-7.3-10.5-12.3c-0.6-2-0.9-4.1-0.8-6.3c-4.7-1.7-8.2-4.7-10.3-8.2c-2.1-3.4-3.2-8.1-2.1-13.4c-6.7-1.8-12.5-4.3-15.9-5.8l-7.4,19.9l26.7,7.9L-17,9.1l-32.8-9.7l11.9-32l3,1.5c3.9,1.9,10.8,4.9,18.1,6.9c1.9-4,5.1-8.1,10-12.1c10.8-8.9,19.7-8.1,23.8-3.4c3.5,4,3.6,11.6-4.2,18.7c-6.3,5.7-16.2,5.7-25.7,3.8c-0.6,3.2-0.2,6.2,1.4,8.9c1.3,2.2,3.4,4,6.3,5.3C-3.4-8.3,0.7-13.2,8-16c15.9-6.1,19.9,0.2,20.7,2.2c2.1,5.2-2.4,11.8-10.1,15C11.5,4.2,5.1,5-0.3,4.4C-0.2,5.5,0,6.5,0.3,7.5c0.9,3.2,3,6.1,6.2,8C8,12.1,11,9,15,6.7C25,1,32.2,1.6,35.7,4.2c2.3,1.7,3.3,4.3,2.7,7.1c-1.1,5.3-7.6,9.7-17.5,11.8c-3.6,0.8-6.8,0.8-9.7,0.4c1,4.9,6,9.5,13.9,12.8l7.4-10.7l17.4,10.1l-3,5.1l-12.6-7.4L27.3,43.4L27.3,43.4z M12.1,17.5c2.2,0.3,4.8,0.3,7.6-0.3c9.4-2,12.6-5.6,12.9-7.2c0.1-0.4,0-0.7-0.4-1c-1.4-1-6.2-1.7-14.1,2.9C15.2,13.4,13.2,15.4,12.1,17.5L12.1,17.5z M0.6-1.5C5-1,10.3-1.7,16.3-4.2c5.4-2.3,7.4-6,6.9-7.3c-0.4-1-4.3-2.2-13,1.1C5-8.5,2-5.1,0.6-1.5L0.6-1.5z M-10.8-22.8c7.8,1.4,15.2,1.3,19.5-2.6c4.7-4.2,5.4-8.4,3.7-10.4c-2.1-2.5-8.3-1.9-15.5,4.1C-6.5-28.9-9.1-25.9-10.8-22.8L-10.8-22.8z" stroke="transparent" fill="#BBBDBF" stroke-width="8" transform="scale(0.36)" onmouseover="BMA.SVGHelper.AddClass(this, 'modeldesigner-element-hover')" onmouseout="BMA.SVGHelper.RemoveClass(this, 'modeldesigner-element-hover')"/><text x="0" y="0" transform="translate(-17.5, 25)" font-size="10" font-family="OpenSans" src="local('Segoe UI'), local('Frutiger'), local('Frutiger Linotype'), local('Dejavu Sans'), local('Helvetica Neue'), local('HelveticaNeue'), local('Arial'), local('sans serif'), local('sans-serif')" fill="black">DA_Cleft2</text></g><line x1="636.2857479891197" y1="-372.8134460138853" x2="700.4572454425978" y2="-221.1307137977086" stroke="#808080" stroke-width="2" marker-end="url(#Activator)" onmouseover="BMA.SVGHelper.ChangeStrokeWidth(this, window.ElementRegistry.LineWidth + 2)" onmouseout="BMA.SVGHelper.ChangeStrokeWidth(this, window.ElementRegistry.LineWidth + 1)"/><line x1="728.2309217337037" y1="-201.8415230642211" x2="1012.8145456420615" y2="-189.45383054443366" stroke="#808080" stroke-width="2" marker-end="url(#Activator)" onmouseover="BMA.SVGHelper.ChangeStrokeWidth(this, window.ElementRegistry.LineWidth + 2)" onmouseout="BMA.SVGHelper.ChangeStrokeWidth(this, window.ElementRegistry.LineWidth + 1)"/><line x1="1127.889624995453" y1="-348.7588449441688" x2="1266.9379442145998" y2="-334.08971037367513" stroke="#808080" stroke-width="2" marker-end="url(#Activator)" onmouseover="BMA.SVGHelper.ChangeStrokeWidth(this, window.ElementRegistry.LineWidth + 2)" onmouseout="BMA.SVGHelper.ChangeStrokeWidth(this, window.ElementRegistry.LineWidth + 1)"/><line x1="1306.0895847203042" y1="-326.6086004990983" x2="1495.6418147191825" y2="-273.63773339499306" stroke="#808080" stroke-width="2" marker-end="url(#Activator)" onmouseover="BMA.SVGHelper.ChangeStrokeWidth(this, window.ElementRegistry.LineWidth + 2)" onmouseout="BMA.SVGHelper.ChangeStrokeWidth(this, window.ElementRegistry.LineWidth + 1)"/><line x1="982.2493637549103" y1="-354.70636167117095" x2="1088.0093631444736" y2="-351.46904762066794" stroke="#808080" stroke-width="2" marker-end="url(#Inhibitor)" onmouseover="BMA.SVGHelper.ChangeStrokeWidth(this, window.ElementRegistry.LineWidth + 2)" onmouseout="BMA.SVGHelper.ChangeStrokeWidth(this, window.ElementRegistry.LineWidth + 1)"/><line x1="713.955761188442" y1="-338.64773265807185" x2="709.0886021062892" y2="-222.69368742749475" stroke="#808080" stroke-width="2" marker-end="url(#Inhibitor)" onmouseover="BMA.SVGHelper.ChangeStrokeWidth(this, window.ElementRegistry.LineWidth + 2)" onmouseout="BMA.SVGHelper.ChangeStrokeWidth(this, window.ElementRegistry.LineWidth + 1)"/><line x1="945.1148760554128" y1="-345.01835388053473" x2="725.3936935907573" y2="-213.01120437273454" stroke="#808080" stroke-width="2" marker-end="url(#Activator)" onmouseover="BMA.SVGHelper.ChangeStrokeWidth(this, window.ElementRegistry.LineWidth + 2)" onmouseout="BMA.SVGHelper.ChangeStrokeWidth(this, window.ElementRegistry.LineWidth + 1)"/><line x1="1088.0093631444736" y1="-351.46904762066794" x2="982.2493637549103" y2="-354.70636167117095" stroke="#808080" stroke-width="2" marker-end="url(#Activator)" onmouseover="BMA.SVGHelper.ChangeStrokeWidth(this, window.ElementRegistry.LineWidth + 2)" onmouseout="BMA.SVGHelper.ChangeStrokeWidth(this, window.ElementRegistry.LineWidth + 1)"/><line x1="796.4954994547015" y1="-397.90945376839585" x2="732.8195690384489" y2="-367.2960256836589" stroke="#808080" stroke-width="2" marker-end="url(#Inhibitor)" onmouseover="BMA.SVGHelper.ChangeStrokeWidth(this, window.ElementRegistry.LineWidth + 2)" onmouseout="BMA.SVGHelper.ChangeStrokeWidth(this, window.ElementRegistry.LineWidth + 1)"/><line x1="794.5882228775372" y1="-404.93143936738903" x2="648.4254757525996" y2="-392.8767798106931" stroke="#808080" stroke-width="2" marker-end="url(#Activator)" onmouseover="BMA.SVGHelper.ChangeStrokeWidth(this, window.ElementRegistry.LineWidth + 2)" onmouseout="BMA.SVGHelper.ChangeStrokeWidth(this, window.ElementRegistry.LineWidth + 1)"/><line x1="847.6614920540536" y1="-485.8874661510468" x2="822.23153230975" y2="-425.02908788855973" stroke="#808080" stroke-width="2" marker-end="url(#Activator)" onmouseover="BMA.SVGHelper.ChangeStrokeWidth(this, window.ElementRegistry.LineWidth + 2)" onmouseout="BMA.SVGHelper.ChangeStrokeWidth(this, window.ElementRegistry.LineWidth + 1)"/><line x1="1171.3097615899776" y1="-479.36743745685305" x2="875.3102840386734" y2="-502.76519529700926" stroke="#808080" stroke-width="2" marker-end="url(#Activator)" onmouseover="BMA.SVGHelper.ChangeStrokeWidth(this, window.ElementRegistry.LineWidth + 2)" onmouseout="BMA.SVGHelper.ChangeStrokeWidth(this, window.ElementRegistry.LineWidth + 1)"/><line x1="867.0290852606636" y1="-488.08933567280445" x2="950.6021180573188" y2="-371.57015105505275" stroke="#808080" stroke-width="2" marker-end="url(#Inhibitor)" onmouseover="BMA.SVGHelper.ChangeStrokeWidth(this, window.ElementRegistry.LineWidth + 2)" onmouseout="BMA.SVGHelper.ChangeStrokeWidth(this, window.ElementRegistry.LineWidth + 1)"/><line x1="950.6021180573188" y1="-371.57015105505275" x2="867.0290852606636" y2="-488.08933567280445" stroke="#808080" stroke-width="2" marker-end="url(#Inhibitor)" onmouseover="BMA.SVGHelper.ChangeStrokeWidth(this, window.ElementRegistry.LineWidth + 2)" onmouseout="BMA.SVGHelper.ChangeStrokeWidth(this, window.ElementRegistry.LineWidth + 1)"/><line x1="875.3102840386734" y1="-502.76519529700926" x2="1171.3097615899776" y2="-479.36743745685305" stroke="#808080" stroke-width="2" marker-end="url(#Inhibitor)" onmouseover="BMA.SVGHelper.ChangeStrokeWidth(this, window.ElementRegistry.LineWidth + 2)" onmouseout="BMA.SVGHelper.ChangeStrokeWidth(this, window.ElementRegistry.LineWidth + 1)"/><line x1="825.6630727268704" y1="-389.96678619225446" x2="1039.6097687963165" y2="-71.0672718698292" stroke="#808080" stroke-width="2" marker-end="url(#Activator)" onmouseover="BMA.SVGHelper.ChangeStrokeWidth(this, window.ElementRegistry.LineWidth + 2)" onmouseout="BMA.SVGHelper.ChangeStrokeWidth(this, window.ElementRegistry.LineWidth + 1)"/><line x1="1070.728150319231" y1="-55.441134780326145" x2="1156.13423500187" y2="-59.64143402701331" stroke="#808080" stroke-width="2" marker-end="url(#Activator)" onmouseover="BMA.SVGHelper.ChangeStrokeWidth(this, window.ElementRegistry.LineWidth + 2)" onmouseout="BMA.SVGHelper.ChangeStrokeWidth(this, window.ElementRegistry.LineWidth + 1)"/><line x1="1176.8353409101796" y1="-80.6106992264684" x2="1190.5223200429923" y2="-457.80457516455" stroke="#808080" stroke-width="2" marker-end="url(#Activator)" onmouseover="BMA.SVGHelper.ChangeStrokeWidth(this, window.ElementRegistry.LineWidth + 2)" onmouseout="BMA.SVGHelper.ChangeStrokeWidth(this, window.ElementRegistry.LineWidth + 1)"/><line x1="1071.3218566081064" y1="-407.57119478205493" x2="980.2954661448056" y2="-363.95980496027505" stroke="#808080" stroke-width="2" marker-end="url(#Inhibitor)" onmouseover="BMA.SVGHelper.ChangeStrokeWidth(this, window.ElementRegistry.LineWidth + 2)" onmouseout="BMA.SVGHelper.ChangeStrokeWidth(this, window.ElementRegistry.LineWidth + 1)"/><line x1="1070.6421219614658" y1="-423.26209371242163" x2="874.0889503106606" y2="-497.2918424497574" stroke="#808080" stroke-width="2" marker-end="url(#Inhibitor)" onmouseover="BMA.SVGHelper.ChangeStrokeWidth(this, window.ElementRegistry.LineWidth + 2)" onmouseout="BMA.SVGHelper.ChangeStrokeWidth(this, window.ElementRegistry.LineWidth + 1)"/><line x1="828.6718804703759" y1="-392.44240972827646" x2="1018.6442921038085" y2="-202.7170032468665" stroke="#808080" stroke-width="2" marker-end="url(#Inhibitor)" onmouseover="BMA.SVGHelper.ChangeStrokeWidth(this, window.ElementRegistry.LineWidth + 2)" onmouseout="BMA.SVGHelper.ChangeStrokeWidth(this, window.ElementRegistry.LineWidth + 1)"/><line x1="1012.8145456420615" y1="-189.45383054443366" x2="728.2309217337037" y2="-201.8415230642211" stroke="#808080" stroke-width="2" marker-end="url(#Inhibitor)" onmouseover="BMA.SVGHelper.ChangeStrokeWidth(this, window.ElementRegistry.LineWidth + 2)" onmouseout="BMA.SVGHelper.ChangeStrokeWidth(this, window.ElementRegistry.LineWidth + 1)"/><line x1="856.7540691692499" y1="-484.3889886031827" x2="883.5881645842475" y2="-96.86534628254162" stroke="#808080" stroke-width="2" marker-end="url(#Inhibitor)" onmouseover="BMA.SVGHelper.ChangeStrokeWidth(this, window.ElementRegistry.LineWidth + 2)" onmouseout="BMA.SVGHelper.ChangeStrokeWidth(this, window.ElementRegistry.LineWidth + 1)"/><line x1="883.5881645842475" y1="-96.86534628254162" x2="856.7540691692499" y2="-484.3889886031827" stroke="#808080" stroke-width="2" marker-end="url(#Inhibitor)" onmouseover="BMA.SVGHelper.ChangeStrokeWidth(this, window.ElementRegistry.LineWidth + 2)" onmouseout="BMA.SVGHelper.ChangeStrokeWidth(this, window.ElementRegistry.LineWidth + 1)"/><line x1="956.908792528649" y1="-336.047099729842" x2="890.319691705634" y2="-96.18429873603331" stroke="#808080" stroke-width="2" marker-end="url(#Inhibitor)" onmouseover="BMA.SVGHelper.ChangeStrokeWidth(this, window.ElementRegistry.LineWidth + 2)" onmouseout="BMA.SVGHelper.ChangeStrokeWidth(this, window.ElementRegistry.LineWidth + 1)"/><line x1="890.319691705634" y1="-96.18429873603331" x2="956.908792528649" y2="-336.047099729842" stroke="#808080" stroke-width="2" marker-end="url(#Inhibitor)" onmouseover="BMA.SVGHelper.ChangeStrokeWidth(this, window.ElementRegistry.LineWidth + 2)" onmouseout="BMA.SVGHelper.ChangeStrokeWidth(this, window.ElementRegistry.LineWidth + 1)"/><line x1="900.9281270734001" y1="-88.96843066130421" x2="1016.837254890478" y2="-176.52876315995655" stroke="#808080" stroke-width="2" marker-end="url(#Inhibitor)" onmouseover="BMA.SVGHelper.ChangeStrokeWidth(this, window.ElementRegistry.LineWidth + 2)" onmouseout="BMA.SVGHelper.ChangeStrokeWidth(this, window.ElementRegistry.LineWidth + 1)"/><line x1="1016.837254890478" y1="-176.52876315995655" x2="900.9281270734001" y2="-88.96843066130421" stroke="#808080" stroke-width="2" marker-end="url(#Inhibitor)" onmouseover="BMA.SVGHelper.ChangeStrokeWidth(this, window.ElementRegistry.LineWidth + 2)" onmouseout="BMA.SVGHelper.ChangeStrokeWidth(this, window.ElementRegistry.LineWidth + 1)"/><line x1="767.837154248848" y1="-115.10715710545679" x2="865.9550945046514" y2="-83.11333278026817" stroke="#808080" stroke-width="2" marker-end="url(#Activator)" onmouseover="BMA.SVGHelper.ChangeStrokeWidth(this, window.ElementRegistry.LineWidth + 2)" onmouseout="BMA.SVGHelper.ChangeStrokeWidth(this, window.ElementRegistry.LineWidth + 1)"/><line x1="810.0319864763961" y1="-387.085529333229" x2="753.3110528874096" y2="-140.79717970637816" stroke="#808080" stroke-width="2" marker-end="url(#Activator)" onmouseover="BMA.SVGHelper.ChangeStrokeWidth(this, window.ElementRegistry.LineWidth + 2)" onmouseout="BMA.SVGHelper.ChangeStrokeWidth(this, window.ElementRegistry.LineWidth + 1)"/><line x1="724.5432575547522" y1="-191.112807600496" x2="868.6763425269328" y2="-88.51159881064044" stroke="#808080" stroke-width="2" marker-end="url(#Activator)" onmouseover="BMA.SVGHelper.ChangeStrokeWidth(this, window.ElementRegistry.LineWidth + 2)" onmouseout="BMA.SVGHelper.ChangeStrokeWidth(this, window.ElementRegistry.LineWidth + 1)"/><line x1="1039.6097687963165" y1="-71.0672718698292" x2="825.6630727268704" y2="-389.96678619225446" stroke="#808080" stroke-width="2" marker-end="url(#Inhibitor)" onmouseover="BMA.SVGHelper.ChangeStrokeWidth(this, window.ElementRegistry.LineWidth + 2)" onmouseout="BMA.SVGHelper.ChangeStrokeWidth(this, window.ElementRegistry.LineWidth + 1)"/><line x1="1048.0983770700648" y1="-74.28185175509705" x2="1035.449541136896" y2="-168.76093435062276" stroke="#808080" stroke-width="2" marker-end="url(#Inhibitor)" onmouseover="BMA.SVGHelper.ChangeStrokeWidth(this, window.ElementRegistry.LineWidth + 2)" onmouseout="BMA.SVGHelper.ChangeStrokeWidth(this, window.ElementRegistry.LineWidth + 1)"/><line x1="1035.449541136896" y1="-168.76093435062276" x2="1048.0983770700648" y2="-74.28185175509705" stroke="#808080" stroke-width="2" marker-end="url(#Inhibitor)" onmouseover="BMA.SVGHelper.ChangeStrokeWidth(this, window.ElementRegistry.LineWidth + 2)" onmouseout="BMA.SVGHelper.ChangeStrokeWidth(this, window.ElementRegistry.LineWidth + 1)"/><line x1="868.6763425269328" y1="-88.51159881064044" x2="724.5432575547522" y2="-191.112807600496" stroke="#808080" stroke-width="2" marker-end="url(#Inhibitor)" onmouseover="BMA.SVGHelper.ChangeStrokeWidth(this, window.ElementRegistry.LineWidth + 2)" onmouseout="BMA.SVGHelper.ChangeStrokeWidth(this, window.ElementRegistry.LineWidth + 1)"/><line x1="897.5969751136126" y1="-92.42290639123564" x2="1095.3727822212863" y2="-335.3473510584704" stroke="#808080" stroke-width="2" marker-end="url(#Activator)" onmouseover="BMA.SVGHelper.ChangeStrokeWidth(this, window.ElementRegistry.LineWidth + 2)" onmouseout="BMA.SVGHelper.ChangeStrokeWidth(this, window.ElementRegistry.LineWidth + 1)"/><path d="M1111.224816177943,-371.8571341378348A14.7,33.6 0 1,1 1111.224816177943,-329.8571341378348" fill="none" stroke="#808080" stroke-width="2" marker-end="url(#Activator)" onmouseover="BMA.SVGHelper.ChangeStrokeWidth(this, window.ElementRegistry.LineWidth + 2)" onmouseout="BMA.SVGHelper.ChangeStrokeWidth(this, window.ElementRegistry.LineWidth + 1)"/><line x1="1102.6066934839462" y1="-196.41629843960283" x2="1129.393306516054" y2="-205.34516945030543" stroke="#808080" stroke-width="2" marker-end="url(#Activator)" onmouseover="BMA.SVGHelper.ChangeStrokeWidth(this, window.ElementRegistry.LineWidth + 2)" onmouseout="BMA.SVGHelper.ChangeStrokeWidth(this, window.ElementRegistry.LineWidth + 1)"/><line x1="1151.6549522231714" y1="-191.94184629399933" x2="1155.3542220887553" y2="-169.74622710049607" stroke="#808080" stroke-width="2" marker-end="url(#Activator)" onmouseover="BMA.SVGHelper.ChangeStrokeWidth(this, window.ElementRegistry.LineWidth + 2)" onmouseout="BMA.SVGHelper.ChangeStrokeWidth(this, window.ElementRegistry.LineWidth + 1)"/><line x1="1140.5396165981822" y1="-141.51561919450344" x2="1108.9282733100747" y2="-126.66786704402867" stroke="#808080" stroke-width="2" marker-end="url(#Activator)" onmouseover="BMA.SVGHelper.ChangeStrokeWidth(this, window.ElementRegistry.LineWidth + 2)" onmouseout="BMA.SVGHelper.ChangeStrokeWidth(this, window.ElementRegistry.LineWidth + 1)"/><line x1="1088.8356136929747" y1="-138.0658814188787" x2="1085.6231019033557" y2="-170.19099931506628" stroke="#808080" stroke-width="2" marker-end="url(#Inhibitor)" onmouseover="BMA.SVGHelper.ChangeStrokeWidth(this, window.ElementRegistry.LineWidth + 2)" onmouseout="BMA.SVGHelper.ChangeStrokeWidth(this, window.ElementRegistry.LineWidth + 1)"/><line x1="1052.786835192849" y1="-189.1769450247988" x2="1063.641816959066" y2="-189.49886860385678" stroke="#808080" stroke-width="2" marker-end="url(#Activator)" onmouseover="BMA.SVGHelper.ChangeStrokeWidth(this, window.ElementRegistry.LineWidth + 2)" onmouseout="BMA.SVGHelper.ChangeStrokeWidth(this, window.ElementRegistry.LineWidth + 1)"/><line x1="1142.79614947178" y1="-230.87821068296216" x2="1113.5708230052844" y2="-331.6486482255149" stroke="#808080" stroke-width="2" marker-end="url(#Activator)" onmouseover="BMA.SVGHelper.ChangeStrokeWidth(this, window.ElementRegistry.LineWidth + 2)" onmouseout="BMA.SVGHelper.ChangeStrokeWidth(this, window.ElementRegistry.LineWidth + 1)"/><path d="M1086.857843700879,-211.09174311926606A14.7,33.6 0 1,1 1086.857843700879,-169.09174311926606" fill="none" stroke="#808080" stroke-width="2" marker-end="url(#Activator)" onmouseover="BMA.SVGHelper.ChangeStrokeWidth(this, window.ElementRegistry.LineWidth + 2)" onmouseout="BMA.SVGHelper.ChangeStrokeWidth(this, window.ElementRegistry.LineWidth + 1)"/><line x1="1152.7477393231986" y1="-231.18404981251362" x2="1166.5917102180858" y2="-292.8526474351928" stroke="#808080" stroke-width="2" marker-end="url(#Activator)" onmouseover="BMA.SVGHelper.ChangeStrokeWidth(this, window.ElementRegistry.LineWidth + 2)" onmouseout="BMA.SVGHelper.ChangeStrokeWidth(this, window.ElementRegistry.LineWidth + 1)"/><line x1="1153.9076822054124" y1="-322.7973500554078" x2="1125.0647948588078" y2="-340.42675655949125" stroke="#808080" stroke-width="2" marker-end="url(#Activator)" onmouseover="BMA.SVGHelper.ChangeStrokeWidth(this, window.ElementRegistry.LineWidth + 2)" onmouseout="BMA.SVGHelper.ChangeStrokeWidth(this, window.ElementRegistry.LineWidth + 1)"/></svg>